<svg xmlns="http://www.w3.org/2000/svg" viewBox="0 0 512 512">
  <rect width="512" height="512" fill="#050508"/>
  <rect width="512" height="512" fill="url(#grad)"/>
  <defs>
    <linearGradient id="grad" x1="0%" y1="0%" x2="100%" y2="100%">
      <stop offset="0%" stop-color="#c084fc" stop-opacity="0.25" />
      <stop offset="50%" stop-color="#8b5cf6" stop-opacity="0.1" />
      <stop offset="100%" stop-color="#4f46e5" stop-opacity="0" />
    </linearGradient>
    <filter id="glow" x="-20%" y="-20%" width="140%" height="140%">
      <feGaussianBlur stdDeviation="15" result="coloredBlur"/>
      <feMerge>
        <feMergeNode in="coloredBlur"/>
        <feMergeNode in="SourceGraphic"/>
      </feMerge>
    </filter>
  </defs>

  <!-- backpack -->
  <path d="M 160 250 L 120 250 C 100 250 100 370 120 370 L 160 370" fill="none" stroke="#8b5cf6" stroke-width="32" stroke-linecap="round" stroke-linejoin="round"/>
  
  <!-- body (inverted U shape with legs) -->
  <path d="M 180 250 C 180 120 340 120 340 250 L 340 430 C 340 460 280 460 280 430 L 280 380 L 240 380 L 240 430 C 240 460 180 460 180 430 Z" fill="#050508" stroke="#c084fc" stroke-width="28" stroke-linejoin="round"/>
  
  <!-- glowing aura behind visor -->
  <path d="M 220 180 C 220 150 370 150 370 180 C 370 250 220 250 220 180 Z" fill="#f43f5e" filter="url(#glow)" opacity="0.8"/>
  
  <!-- Visor Dark rim -->
  <path d="M 220 180 C 220 150 370 150 370 180 C 370 250 220 250 220 180 Z" fill="#050508" stroke="#f43f5e" stroke-width="8"/>
  
  <!-- Visor Inner Glass -->
  <ellipse cx="295" cy="195" rx="50" ry="25" fill="#e11d48"/>
  
  <!-- shine -->
  <ellipse cx="310" cy="183" rx="18" ry="6" fill="#fff" opacity="0.8" transform="rotate(-15 310 183)"/>
</svg>
